<svg width="24" height="21" viewBox="0 0 24 21" fill="none" xmlns="http://www.w3.org/2000/svg">
<g opacity="0.4">
<path fill-rule="evenodd" clip-rule="evenodd" d="M21.7872 7.44254C21.6518 7.57524 21.4681 7.65107 21.2747 7.65107C20.559 7.65107 19.9787 8.21977 19.9787 8.9117C19.9787 9.60836 20.5522 10.1742 21.2611 10.1818C21.6605 10.1856 22 10.4586 22 10.85V13.2813C22 15.3276 20.3075 16.9873 18.2186 16.9873H15.0658C14.7398 16.9873 14.4758 16.7286 14.4758 16.4091V14.3618C14.4758 13.9637 14.1567 13.6509 13.7505 13.6509C13.354 13.6509 13.0251 13.9637 13.0251 14.3618V16.4091C13.0251 16.7286 12.7611 16.9873 12.4362 16.9873H5.78143C3.70213 16.9873 2 15.3286 2 13.2813V10.85C2 10.4586 2.33946 10.1856 2.73888 10.1818C3.44874 10.1742 4.02128 9.60836 4.02128 8.9117C4.02128 8.23873 3.46035 7.72689 2.72534 7.72689C2.53191 7.72689 2.34816 7.65107 2.21277 7.51837C2.07737 7.38567 2 7.20558 2 7.01601V4.5611C2 2.51755 3.706 0.845558 5.7911 0.845558H12.4362C12.7611 0.845558 13.0251 1.10432 13.0251 1.42374V3.85022C13.0251 4.23883 13.354 4.5611 13.7505 4.5611C14.1567 4.5611 14.4758 4.23883 14.4758 3.85022V1.42374C14.4758 1.10432 14.7398 0.845558 15.0658 0.845558H18.2186C20.3075 0.845558 22 2.50428 22 4.55162V6.94018C22 7.12975 21.9226 7.30984 21.7872 7.44254ZM13.7505 11.8121C14.1567 11.8121 14.4758 11.4898 14.4758 11.1012V7.30984C14.4758 6.92123 14.1567 6.59896 13.7505 6.59896C13.354 6.59896 13.0251 6.92123 13.0251 7.30984V11.1012C13.0251 11.4898 13.354 11.8121 13.7505 11.8121Z" fill="#030229"/>
</g>
</svg>
